<svg width="45" height="45" viewBox="0 0 45 45" fill="none" xmlns="http://www.w3.org/2000/svg">
<circle cx="22.5" cy="22.5" r="22.5" fill="white"/>
<path fill-rule="evenodd" clip-rule="evenodd" d="M22 12.2467C16.475 12.2467 12 16.7217 12 22.2467C12 26.6717 14.8625 30.4092 18.8375 31.7342C19.3375 31.8217 19.525 31.5217 19.525 31.2592C19.525 31.0217 19.5125 30.2342 19.5125 29.3967C17 29.8592 16.35 28.7842 16.15 28.2217C16.0375 27.9342 15.55 27.0467 15.125 26.8092C14.775 26.6217 14.275 26.1592 15.1125 26.1467C15.9 26.1342 16.4625 26.8717 16.65 27.1717C17.55 28.6842 18.9875 28.2592 19.5625 27.9967C19.65 27.3467 19.9125 26.9092 20.2 26.6592C17.975 26.4092 15.65 25.5467 15.65 21.7217C15.65 20.6342 16.0375 19.7342 16.675 19.0342C16.575 18.7842 16.225 17.7592 16.775 16.3842C16.775 16.3842 17.6125 16.1217 19.525 17.4092C20.325 17.1842 21.175 17.0717 22.025 17.0717C22.875 17.0717 23.725 17.1842 24.525 17.4092C26.4375 16.1092 27.275 16.3842 27.275 16.3842C27.825 17.7592 27.475 18.7842 27.375 19.0342C28.0125 19.7342 28.4 20.6217 28.4 21.7217C28.4 25.5592 26.0625 26.4092 23.8375 26.6592C24.2 26.9717 24.5125 27.5717 24.5125 28.5092C24.5125 29.8467 24.5 30.9217 24.5 31.2592C24.5 31.5217 24.6875 31.8342 25.1875 31.7342C27.1727 31.064 28.8977 29.7882 30.1198 28.0862C31.3419 26.3843 31.9995 24.3419 32 22.2467C32 16.7217 27.525 12.2467 22 12.2467Z" fill="black"/>
</svg>
