<svg width="45" height="45" viewBox="0 0 45 45" fill="none" xmlns="http://www.w3.org/2000/svg">
<circle cx="22.5" cy="22.5" r="22.5" fill="white"/>
<path fill-rule="evenodd" clip-rule="evenodd" d="M22 13C19.5556 13 19.2496 13.0102 18.2896 13.054C17.3314 13.0978 16.6768 13.2502 16.1044 13.4728C15.5044 13.6984 14.9602 14.0524 14.5102 14.5108C14.0525 14.9603 13.6983 15.5041 13.4722 16.1044C13.2508 16.6768 13.0978 17.332 13.054 18.2902C13.0108 19.2496 13 19.555 13 22C13 24.445 13.0102 24.7504 13.054 25.7104C13.0978 26.6686 13.2502 27.3232 13.4728 27.8956C13.6984 28.4956 14.0524 29.0398 14.5108 29.4898C14.9603 29.9475 15.5041 30.3017 16.1044 30.5278C16.6768 30.7498 17.3314 30.9022 18.2896 30.946C19.2496 30.9898 19.5556 31 22 31C24.4444 31 24.7504 30.9898 25.7104 30.946C26.6686 30.9022 27.3232 30.7498 27.8956 30.5272C28.4956 30.3016 29.0398 29.9476 29.4898 29.4892C29.9475 29.0397 30.3017 28.4959 30.5278 27.8956C30.7498 27.3232 30.9022 26.6686 30.946 25.7104C30.9898 24.7504 31 24.4444 31 22C31 19.5556 30.9898 19.2496 30.946 18.2896C30.9022 17.3314 30.7498 16.6768 30.5272 16.1044C30.3012 15.5038 29.947 14.9598 29.4892 14.5102C29.0397 14.0525 28.4959 13.6983 27.8956 13.4722C27.3232 13.2508 26.668 13.0978 25.7098 13.054C24.7504 13.0108 24.445 13 22 13ZM22 14.6218C24.403 14.6218 24.688 14.6308 25.6372 14.674C26.5144 14.7142 26.9908 14.86 27.3082 14.9842C27.7282 15.1468 28.0282 15.3424 28.3432 15.6568C28.6582 15.9718 28.8532 16.2718 29.0158 16.6918C29.1394 17.0092 29.2858 17.4856 29.326 18.3628C29.3692 19.312 29.3782 19.597 29.3782 22C29.3782 24.403 29.3692 24.688 29.326 25.6372C29.2858 26.5144 29.14 26.9908 29.0158 27.3082C28.8718 27.6991 28.6419 28.0528 28.3432 28.3432C28.0528 28.642 27.6992 28.8718 27.3082 29.0158C26.9908 29.1394 26.5144 29.2858 25.6372 29.326C24.688 29.3692 24.4036 29.3782 22 29.3782C19.5964 29.3782 19.312 29.3692 18.3628 29.326C17.4856 29.2858 17.0092 29.14 16.6918 29.0158C16.3009 28.8718 15.9472 28.6419 15.6568 28.3432C15.3581 28.0528 15.1283 27.6991 14.9842 27.3082C14.8606 26.9908 14.7142 26.5144 14.674 25.6372C14.6308 24.688 14.6218 24.403 14.6218 22C14.6218 19.597 14.6308 19.312 14.674 18.3628C14.7142 17.4856 14.86 17.0092 14.9842 16.6918C15.1468 16.2718 15.3424 15.9718 15.6568 15.6568C15.9472 15.358 16.3008 15.1282 16.6918 14.9842C17.0092 14.8606 17.4856 14.7142 18.3628 14.674C19.312 14.6308 19.597 14.6218 22 14.6218V14.6218Z" fill="black"/>
<path fill-rule="evenodd" clip-rule="evenodd" d="M22 25.003C21.6056 25.003 21.2151 24.9253 20.8508 24.7744C20.4865 24.6235 20.1554 24.4023 19.8766 24.1234C19.5977 23.8446 19.3765 23.5135 19.2256 23.1492C19.0747 22.7849 18.997 22.3944 18.997 22C18.997 21.6056 19.0747 21.2151 19.2256 20.8508C19.3765 20.4865 19.5977 20.1554 19.8766 19.8766C20.1554 19.5977 20.4865 19.3765 20.8508 19.2256C21.2151 19.0747 21.6056 18.997 22 18.997C22.7964 18.997 23.5603 19.3134 24.1234 19.8766C24.6866 20.4397 25.003 21.2036 25.003 22C25.003 22.7964 24.6866 23.5603 24.1234 24.1234C23.5603 24.6866 22.7964 25.003 22 25.003V25.003ZM22 17.374C20.7731 17.374 19.5965 17.8614 18.7289 18.7289C17.8614 19.5965 17.374 20.7731 17.374 22C17.374 23.2269 17.8614 24.4035 18.7289 25.2711C19.5965 26.1386 20.7731 26.626 22 26.626C23.2269 26.626 24.4035 26.1386 25.2711 25.2711C26.1386 24.4035 26.626 23.2269 26.626 22C26.626 20.7731 26.1386 19.5965 25.2711 18.7289C24.4035 17.8614 23.2269 17.374 22 17.374V17.374ZM27.9718 17.29C27.9718 17.58 27.8566 17.8581 27.6515 18.0632C27.4464 18.2683 27.1683 18.3835 26.8783 18.3835C26.5883 18.3835 26.3101 18.2683 26.1051 18.0632C25.9 17.8581 25.7848 17.58 25.7848 17.29C25.7848 17 25.9 16.7218 26.1051 16.5168C26.3101 16.3117 26.5883 16.1965 26.8783 16.1965C27.1683 16.1965 27.4464 16.3117 27.6515 16.5168C27.8566 16.7218 27.9718 17 27.9718 17.29" fill="black"/>
</svg>
