<svg width="45" height="45" viewBox="0 0 45 45" fill="none" xmlns="http://www.w3.org/2000/svg">
<circle cx="22.5" cy="22.5" r="22.5" fill="white"/>
<path d="M31 14.3235V29.6765C31 30.0275 30.8606 30.3641 30.6123 30.6123C30.3641 30.8606 30.0275 31 29.6765 31H14.3235C13.9725 31 13.6359 30.8606 13.3877 30.6123C13.1394 30.3641 13 30.0275 13 29.6765V14.3235C13 13.9725 13.1394 13.6359 13.3877 13.3877C13.6359 13.1394 13.9725 13 14.3235 13H29.6765C30.0275 13 30.3641 13.1394 30.6123 13.3877C30.8606 13.6359 31 13.9725 31 14.3235ZM18.2941 19.8824H15.6471V28.3529H18.2941V19.8824ZM18.5324 16.9706C18.5337 16.7704 18.4957 16.5718 18.4204 16.3863C18.345 16.2008 18.2339 16.0319 18.0933 15.8893C17.9527 15.7468 17.7854 15.6333 17.6009 15.5554C17.4165 15.4775 17.2185 15.4367 17.0182 15.4353H16.9706C16.5634 15.4353 16.1729 15.597 15.885 15.885C15.597 16.1729 15.4353 16.5634 15.4353 16.9706C15.4353 17.3778 15.597 17.7683 15.885 18.0562C16.1729 18.3441 16.5634 18.5059 16.9706 18.5059C17.1708 18.5108 17.3701 18.4762 17.557 18.4041C17.7438 18.332 17.9147 18.2238 18.0597 18.0856C18.2047 17.9475 18.3211 17.7821 18.4022 17.599C18.4833 17.4158 18.5275 17.2185 18.5324 17.0182V16.9706ZM28.3529 23.2071C28.3529 20.6606 26.7329 19.6706 25.1235 19.6706C24.5966 19.6442 24.0719 19.7564 23.6019 19.9961C23.1318 20.2358 22.7328 20.5945 22.4447 21.0365H22.3706V19.8824H19.8824V28.3529H22.5294V23.8476C22.4911 23.3862 22.6365 22.9283 22.9339 22.5735C23.2313 22.2186 23.6567 21.9954 24.1176 21.9524H24.2182C25.06 21.9524 25.6847 22.4818 25.6847 23.8159V28.3529H28.3318L28.3529 23.2071Z" fill="black"/>
</svg>
