<svg width="420" height="120" viewBox="0 0 420 120" fill="none" xmlns="http://www.w3.org/2000/svg">
<circle cx="150" cy="30" r="30" fill="white"/>
<path d="M168 12H133V47H168V12Z" fill="#F7DF1E"/>
<path d="M156.511 39.3439C157.216 40.495 158.133 41.3411 159.756 41.3411C161.118 41.3411 161.989 40.66 161.989 39.7189C161.989 38.5911 161.094 38.1916 159.594 37.5355L158.772 37.1828C156.399 36.1716 154.822 34.905 154.822 32.2272C154.822 29.7605 156.702 27.8828 159.639 27.8828C161.73 27.8828 163.233 28.6105 164.317 30.5161L161.756 32.1605C161.192 31.1494 160.583 30.7511 159.639 30.7511C158.676 30.7511 158.065 31.3622 158.065 32.1605C158.065 33.1472 158.676 33.5466 160.087 34.1578L160.909 34.51C163.704 35.7083 165.282 36.93 165.282 39.6766C165.282 42.6378 162.956 44.26 159.832 44.26C156.777 44.26 154.804 42.8044 153.838 40.8966L156.511 39.3439ZM144.893 39.6289C145.409 40.5455 145.879 41.3205 147.009 41.3205C148.09 41.3205 148.772 40.8978 148.772 39.2539V28.0705H152.061V39.2983C152.061 42.7039 150.064 44.2539 147.149 44.2539C144.516 44.2539 142.991 42.8911 142.216 41.2497L144.893 39.6289Z" fill="black"/>
<circle cx="270" cy="30" r="30" fill="white"/>
<path d="M270.5 34.5857C272.301 34.5857 273.761 33.2042 273.761 31.5C273.761 29.7959 272.301 28.4144 270.5 28.4144C268.699 28.4144 267.239 29.7959 267.239 31.5C267.239 33.2042 268.699 34.5857 270.5 34.5857Z" fill="#61DAFB"/>
<path d="M270.5 37.8219C280.165 37.8219 288 34.9915 288 31.5C288 28.0085 280.165 25.1781 270.5 25.1781C260.835 25.1781 253 28.0085 253 31.5C253 34.9915 260.835 37.8219 270.5 37.8219Z" stroke="#61DAFB" stroke-width="3"/>
<path d="M264.713 34.6609C269.546 42.5802 276.054 47.5848 279.25 45.8391C282.446 44.0933 281.119 36.2583 276.287 28.3391C271.454 20.4198 264.946 15.4152 261.75 17.1609C258.554 18.9067 259.881 26.7417 264.713 34.6609Z" stroke="#61DAFB" stroke-width="3"/>
<path d="M264.713 28.339C259.881 36.2583 258.554 44.0933 261.75 45.839C264.946 47.5847 271.454 42.5801 276.287 34.6609C281.119 26.7417 282.446 18.9066 279.25 17.1609C276.054 15.4152 269.546 20.4198 264.713 28.339Z" stroke="#61DAFB" stroke-width="3"/>
<circle cx="390" cy="30" r="30" fill="white"/>
<path d="M414.294 25.2123C414.162 25.1073 412.927 24.1748 410.323 24.1748C409.635 24.1779 408.949 24.2368 408.271 24.3512C407.767 20.8964 404.91 19.212 404.782 19.1364L404.083 18.7332L403.623 19.3969C403.047 20.2884 402.627 21.2712 402.38 22.3035C401.913 24.2757 402.197 26.128 403.199 27.7116C401.989 28.3857 400.048 28.5517 399.656 28.5663H367.527C366.688 28.5675 366.007 29.2457 366.002 30.0848C365.965 32.8995 366.441 35.6974 367.409 38.3407C368.516 41.2432 370.163 43.3812 372.305 44.6896C374.705 46.1598 378.605 46.9999 383.026 46.9999C385.024 47.0062 387.017 46.8254 388.98 46.4601C391.71 45.959 394.336 45.0049 396.751 43.6374C398.741 42.4852 400.532 41.0193 402.054 39.2963C404.6 36.4148 406.116 33.2056 407.244 30.3536H407.693C410.48 30.3536 412.194 29.2384 413.139 28.3038C413.767 27.7078 414.258 26.9817 414.576 26.1763L414.775 25.5925L414.294 25.2123Z" fill="#2496ED"/>
<path d="M370.505 27.6255H374.81C375.018 27.6255 375.186 27.4571 375.186 27.2496V23.4145C375.187 23.2069 375.02 23.0377 374.812 23.0365C374.812 23.0365 374.811 23.0365 374.81 23.0365H370.505C370.297 23.0365 370.129 23.2048 370.129 23.4124V23.4145V27.2495C370.129 27.4571 370.297 27.6255 370.505 27.6255Z" fill="#2496ED"/>
<path d="M376.438 27.6255H380.743C380.951 27.6255 381.119 27.4571 381.119 27.2496V23.4145C381.12 23.2069 380.953 23.0377 380.745 23.0365C380.745 23.0365 380.744 23.0365 380.743 23.0365H376.438C376.229 23.0365 376.06 23.2057 376.06 23.4145V27.2495C376.061 27.4575 376.23 27.6255 376.438 27.6255Z" fill="#2496ED"/>
<path d="M382.461 27.6255H386.767C386.974 27.6255 387.143 27.4571 387.143 27.2496V23.4145C387.144 23.2069 386.976 23.0377 386.769 23.0365C386.768 23.0365 386.767 23.0365 386.767 23.0365H382.461C382.254 23.0365 382.085 23.2048 382.085 23.4124V23.4145V27.2495C382.085 27.4571 382.254 27.6255 382.461 27.6255Z" fill="#2496ED"/>
<path d="M388.413 27.6255H392.719C392.927 27.6255 393.096 27.4576 393.097 27.2496V23.4145C393.097 23.2057 392.928 23.0365 392.719 23.0365H388.413C388.206 23.0365 388.037 23.2048 388.037 23.4124V23.4145V27.2495C388.037 27.4571 388.206 27.6255 388.413 27.6255Z" fill="#2496ED"/>
<path d="M376.438 22.1083H380.743C380.951 22.1072 381.119 21.9382 381.119 21.7303V17.8953C381.119 17.6877 380.951 17.5194 380.743 17.5194H376.438C376.23 17.5194 376.061 17.6873 376.06 17.8953V21.7303C376.061 21.9386 376.23 22.1072 376.438 22.1083Z" fill="#2496ED"/>
<path d="M382.461 22.1083H386.767C386.975 22.1072 387.143 21.9382 387.143 21.7303V17.8953C387.143 17.6877 386.974 17.5194 386.767 17.5194H382.461C382.254 17.5194 382.085 17.6877 382.085 17.8953V21.7303C382.085 21.9382 382.253 22.1072 382.461 22.1083Z" fill="#2496ED"/>
<path d="M388.413 22.1083H392.719C392.927 22.1072 393.096 21.9386 393.097 21.7303V17.8953C393.096 17.6873 392.927 17.5194 392.719 17.5194H388.413C388.206 17.5194 388.037 17.6877 388.037 17.8953V21.7303C388.037 21.9382 388.205 22.1072 388.413 22.1083Z" fill="#2496ED"/>
<path d="M388.413 16.589H392.719C392.927 16.589 393.096 16.421 393.097 16.2131V12.3759C393.096 12.1679 392.927 12 392.719 12H388.413C388.206 12 388.037 12.1683 388.037 12.3759V16.213C388.037 16.4206 388.206 16.589 388.413 16.589Z" fill="#2496ED"/>
<path d="M394.418 27.6255H398.723C398.931 27.6255 399.1 27.4576 399.101 27.2496V23.4145C399.101 23.2057 398.932 23.0365 398.723 23.0365H394.418C394.21 23.0365 394.042 23.2048 394.042 23.4124V23.4145V27.2495C394.042 27.4571 394.21 27.6255 394.418 27.6255Z" fill="#2496ED"/>
<circle cx="30" cy="30" r="30" fill="white"/>
<path d="M24.2721 40.7007C24.2721 40.7007 22.4587 41.7552 25.5628 42.1121C29.3233 42.541 31.2452 42.4796 35.3894 41.6952C35.3894 41.6952 36.479 42.3783 38.0005 42.9701C28.7105 46.9516 16.9752 42.7394 24.2721 40.7007ZM23.1369 35.5049C23.1369 35.5049 21.1029 37.0106 24.2093 37.3318C28.2265 37.7462 31.3988 37.7802 36.8883 36.7232C36.8883 36.7232 37.6476 37.4929 38.8415 37.9139C27.6092 41.1983 15.0986 38.1729 23.1369 35.5049Z" fill="#5382A1"/>
<path d="M32.707 26.6914C34.9961 29.3268 32.1056 31.6984 32.1056 31.6984C32.1056 31.6984 37.9179 28.6979 35.2485 24.9405C32.7555 21.4367 30.8435 19.6955 41.1937 13.6929C41.1937 13.6929 24.9475 17.7504 32.707 26.6913" fill="#E76F00"/>
<path d="M44.9939 44.5438C44.9939 44.5438 46.3359 45.6495 43.5158 46.505C38.1535 48.1295 21.1972 48.62 16.4868 46.5697C14.7935 45.8332 17.9689 44.8109 18.9677 44.5963C20.0094 44.3704 20.6047 44.4126 20.6047 44.4126C18.7216 43.086 8.43317 47.0173 15.3787 48.1431C34.3201 51.2149 49.907 46.76 44.9939 44.5438ZM25.1441 30.1217C25.1441 30.1217 16.5192 32.1704 22.0899 32.9141C24.442 33.2291 29.1308 33.1579 33.4985 32.7918C37.0679 32.4909 40.6521 31.8506 40.6521 31.8506C40.6521 31.8506 39.3935 32.3897 38.4829 33.0114C29.7243 35.315 12.8042 34.2434 17.6753 31.887C21.7948 29.8958 25.1442 30.1217 25.1442 30.1217H25.1441ZM40.6165 38.7701C49.5202 34.1435 45.4035 29.6974 42.5301 30.2965C41.8258 30.4429 41.5118 30.5699 41.5118 30.5699C41.5118 30.5699 41.7733 30.1604 42.2726 29.9832C47.957 27.9846 52.3287 35.8774 40.4376 39.0033C40.4376 39.0034 40.5754 38.8803 40.6165 38.7701Z" fill="#5382A1"/>
<path d="M35.2486 4.00014C35.2486 4.00014 40.1796 8.9329 30.5718 16.5177C22.8675 22.6021 28.815 26.0713 30.5686 30.0349C26.0714 25.9774 22.771 22.4055 24.9853 19.0812C28.235 14.2011 37.238 11.8351 35.2486 4" fill="#E76F00"/>
<path d="M26.0191 51.3071C34.5654 51.8542 47.6892 51.0036 48 46.9597C48 46.9597 47.4025 48.4928 40.9369 49.7102C33.6425 51.0829 24.6459 50.9227 19.3098 50.0429C19.31 50.0429 20.4022 50.947 26.0192 51.3071" fill="#5382A1"/>
<circle cx="94" cy="90" r="30" fill="white"/>
<path d="M108.354 99.0701C106.443 99.0218 104.962 99.2158 103.72 99.7492C103.361 99.8946 102.788 99.8947 102.74 100.356C102.931 100.55 102.955 100.865 103.123 101.131C103.41 101.616 103.911 102.271 104.365 102.611C104.866 102.999 105.368 103.387 105.894 103.726C106.826 104.308 107.877 104.648 108.785 105.23C109.31 105.569 109.836 106.006 110.361 106.37C110.624 106.563 110.791 106.879 111.126 107V106.927C110.958 106.709 110.911 106.394 110.743 106.151C110.505 105.909 110.266 105.69 110.027 105.448C109.334 104.502 108.474 103.678 107.542 102.999C106.778 102.465 105.105 101.738 104.795 100.84C104.795 100.84 104.771 100.816 104.747 100.792C105.273 100.744 105.894 100.55 106.396 100.404C107.208 100.186 107.948 100.234 108.785 100.016C109.167 99.919 109.549 99.7977 109.931 99.6765V99.4583C109.501 99.0218 109.191 98.4398 108.737 98.0275C107.518 96.9603 106.18 95.9177 104.795 95.0447C104.054 94.5597 103.099 94.2444 102.31 93.8322C102.024 93.6865 101.546 93.6139 101.379 93.3714C100.948 92.838 100.71 92.1348 100.399 91.5042C99.7064 90.1703 99.0373 88.6911 98.44 87.2848C98.0102 86.3389 97.7474 85.393 97.2217 84.5202C94.7611 80.3976 92.0854 77.8999 87.9764 75.4505C87.0923 74.9413 86.0412 74.723 84.9184 74.4564C84.3213 74.432 83.7239 74.3836 83.1267 74.3592C82.7444 74.1894 82.3621 73.7288 82.0276 73.5105C80.6662 72.6374 77.1541 70.7461 76.1507 73.2439C75.5056 74.82 77.1064 76.3719 77.6557 77.1724C78.0621 77.7301 78.5875 78.3605 78.8742 78.9911C79.0415 79.4031 79.0891 79.84 79.2564 80.2764C79.6388 81.3431 79.9969 82.5316 80.4988 83.526C80.7616 84.0351 81.0482 84.5686 81.3827 85.0294C81.5738 85.296 81.9082 85.4174 81.98 85.8538C81.6456 86.3389 81.6216 87.0665 81.4303 87.6727C80.5703 90.413 80.905 93.808 82.1232 95.8207C82.5054 96.4267 83.4133 97.7609 84.6317 97.2514C85.7068 96.815 85.4679 95.4328 85.7782 94.2203C85.8502 93.9289 85.8024 93.7352 85.9456 93.5412V93.5898C86.2801 94.2686 86.6145 94.9236 86.9251 95.6025C87.6658 96.7906 88.9557 98.0275 90.0307 98.8521C90.6043 99.2884 91.0581 100.04 91.7749 100.307V100.234H91.727C91.5836 100.016 91.3686 99.919 91.1776 99.7491C90.7476 99.3128 90.2697 98.7792 89.9353 98.2942C88.9321 96.936 88.0479 95.4326 87.2596 93.8806C86.8774 93.129 86.5428 92.3044 86.2323 91.5527C86.0888 91.2614 86.0888 90.8251 85.8501 90.6797C85.4917 91.2132 84.9662 91.674 84.7033 92.3287C84.2497 93.3714 84.2017 94.6567 84.0345 95.9903C83.9389 96.0148 83.9866 95.9903 83.9388 96.0391C83.1745 95.8448 82.9117 95.0447 82.6248 94.3656C81.908 92.644 81.7886 89.8794 82.4099 87.8909C82.5772 87.3816 83.2939 85.7812 83.0072 85.2962C82.8639 84.8354 82.3859 84.5686 82.1232 84.2049C81.8127 83.7441 81.4781 83.1623 81.2632 82.6529C80.6898 81.2948 80.4031 79.7913 79.782 78.4333C79.4953 77.8027 78.9938 77.1482 78.5875 76.5661C78.1337 75.9114 77.6319 75.4505 77.2735 74.6745C77.1542 74.4079 76.9868 73.9713 77.178 73.6803C77.2258 73.4862 77.3212 73.4136 77.5125 73.3651C77.8231 73.0982 78.7071 73.4377 79.0174 73.5833C79.9015 73.9468 80.642 74.2866 81.3827 74.7958C81.717 75.0383 82.0754 75.4991 82.5054 75.6204H83.0071C83.7717 75.79 84.6315 75.6689 85.3483 75.887C86.6146 76.2992 87.7612 76.9055 88.7886 77.5603C91.9182 79.573 94.4981 82.4346 96.2423 85.8538C96.529 86.4114 96.6483 86.921 96.9111 87.5028C97.413 88.6911 98.0341 89.9037 98.5356 91.0677C99.0373 92.2073 99.515 93.3714 100.232 94.3173C100.59 94.8263 102.023 95.0932 102.669 95.36C103.146 95.5781 103.887 95.7723 104.317 96.0389C105.129 96.548 105.941 97.1303 106.706 97.6879C107.088 97.9789 108.283 98.5852 108.354 99.0701Z" fill="#00546B"/>
<path d="M83.9864 77.9966C83.5804 77.9966 83.2938 78.0454 83.0071 78.118V78.1665H83.0549C83.2462 78.5545 83.5804 78.8213 83.8192 79.1607C84.0105 79.5486 84.1776 79.9368 84.3689 80.3249C84.3926 80.3005 84.4165 80.2764 84.4165 80.2764C84.7511 80.0337 84.9182 79.6458 84.9182 79.0637C84.7749 78.8941 84.751 78.7243 84.6315 78.5545C84.4883 78.3119 84.1776 78.1907 83.9864 77.9966Z" fill="#00546B"/>
<circle cx="214" cy="90" r="30" fill="white"/>
<path d="M230.765 92.9658C230.562 92.3478 230.029 91.9173 229.339 91.8141C229.014 91.7654 228.642 91.7861 228.201 91.8772C227.434 92.0361 226.864 92.0965 226.448 92.1082C228.017 89.4516 229.293 86.4222 230.028 83.5705C231.216 78.9593 230.581 76.8586 229.839 75.9084C227.876 73.3934 225.013 72.0423 221.558 72.001C219.715 71.9784 218.097 72.3433 217.253 72.6057C216.467 72.4667 215.622 72.389 214.735 72.3747C213.074 72.3481 211.605 72.7114 210.35 73.458C209.656 73.2225 208.541 72.8904 207.254 72.6785C204.226 72.1801 201.785 72.5685 200 73.833C197.838 75.3641 196.836 78.0243 197.022 81.7396C197.081 82.9193 197.739 86.5083 198.775 89.9121C199.37 91.8686 200.005 93.4932 200.662 94.7414C201.594 96.5114 202.59 97.5537 203.709 97.928C204.336 98.1375 205.476 98.2842 206.674 97.2833C206.826 97.4678 207.029 97.6511 207.298 97.8214C207.64 98.0374 208.057 98.2139 208.474 98.3185C209.978 98.6954 211.386 98.6012 212.587 98.0729C212.595 98.2872 212.601 98.4919 212.605 98.6687C212.613 98.9554 212.621 99.2366 212.632 99.4995C212.703 101.277 212.824 102.66 213.181 103.627C213.201 103.68 213.227 103.761 213.255 103.847C213.433 104.394 213.731 105.311 214.49 106.029C215.275 106.772 216.225 107 217.095 107C217.532 107 217.948 106.943 218.313 106.864C219.615 106.584 221.094 106.158 222.163 104.631C223.174 103.187 223.666 101.013 223.755 97.5872C223.766 97.4903 223.777 97.3977 223.787 97.3096L223.808 97.1286L224.047 97.1496L224.108 97.1537C225.434 97.2143 227.055 96.9324 228.051 96.4686C228.837 96.1025 231.359 94.7677 230.765 92.9658Z" fill="black"/>
<path d="M228.498 93.3162C224.556 94.1317 224.285 92.7932 224.285 92.7932C228.447 86.5997 230.187 78.7379 228.686 76.8137C224.589 71.565 217.497 74.0473 217.379 74.1117L217.341 74.1186C216.562 73.9564 215.69 73.8599 214.711 73.8438C212.927 73.8146 211.574 74.3128 210.547 75.0936C210.547 75.0936 197.896 69.8676 198.485 81.6661C198.61 84.1761 202.073 100.658 206.202 95.6798C207.712 93.8593 209.171 92.3202 209.171 92.3202C209.895 92.8027 210.762 93.0489 211.671 92.9605L211.742 92.9004C211.72 93.1264 211.73 93.3474 211.77 93.6092C210.706 94.8011 211.019 95.0104 208.892 95.4494C206.74 95.8942 208.004 96.6859 208.83 96.893C209.83 97.1439 212.145 97.4993 213.71 95.3035L213.647 95.5541C214.064 95.8889 214.357 97.7318 214.308 99.4026C214.259 101.073 214.226 102.22 214.554 103.116C214.883 104.012 215.21 106.028 218.006 105.427C220.342 104.925 221.553 103.624 221.722 101.454C221.841 99.9113 222.112 100.139 222.129 98.76L222.346 98.1071C222.596 96.0157 222.385 95.341 223.825 95.6548L224.174 95.6856C225.234 95.7339 226.62 95.5147 227.434 95.1355C229.186 94.3201 230.226 92.9585 228.498 93.3162H228.498Z" fill="#336791"/>
<path d="M211.287 82.7886C210.932 82.739 210.61 82.7849 210.448 82.9085C210.356 82.978 210.328 83.0586 210.32 83.114C210.3 83.2609 210.402 83.4234 210.465 83.5071C210.644 83.7442 210.904 83.9072 211.162 83.9431C211.2 83.9484 211.237 83.9508 211.274 83.9508C211.704 83.9508 212.095 83.6149 212.13 83.367C212.173 83.0565 211.723 82.8495 211.287 82.7888V82.7886ZM223.057 82.7985C223.023 82.5551 222.591 82.4857 222.181 82.5428C221.772 82.6 221.375 82.7853 221.408 83.0292C221.435 83.2189 221.776 83.5427 222.18 83.5427C222.215 83.5427 222.249 83.5405 222.284 83.5355C222.554 83.4981 222.752 83.3262 222.846 83.2271C222.989 83.0761 223.072 82.9079 223.057 82.7985Z" fill="white"/>
<path d="M229.81 93.2235C229.66 92.7677 229.176 92.6211 228.372 92.7875C225.985 93.2815 225.13 92.9393 224.85 92.7321C226.705 89.8981 228.231 86.4722 229.054 83.2759C229.444 81.7619 229.66 80.3557 229.677 79.2096C229.697 77.9517 229.483 77.0273 229.043 76.4626C227.266 74.1862 224.659 72.9651 221.502 72.9316C219.332 72.9072 217.499 73.464 217.144 73.6206C216.395 73.434 215.579 73.3194 214.691 73.3048C213.062 73.2783 211.654 73.6694 210.488 74.4666C209.982 74.2775 208.673 73.827 207.073 73.5685C204.306 73.1219 202.107 73.4603 200.538 74.5749C198.666 75.905 197.802 78.2826 197.969 81.6414C198.025 82.7715 198.667 86.2478 199.681 89.577C201.015 93.9589 202.465 96.4395 203.99 96.9498C204.169 97.0095 204.375 97.0512 204.602 97.0512C205.158 97.0512 205.84 96.7997 206.55 95.9439C207.416 94.9024 208.312 93.8861 209.236 92.8964C209.836 93.2192 210.495 93.3994 211.169 93.4175C211.17 93.4352 211.172 93.4529 211.173 93.4704C211.057 93.6091 210.944 93.7498 210.832 93.8924C210.366 94.4868 210.268 94.6105 208.766 94.9208C208.338 95.0093 207.203 95.2439 207.186 96.042C207.168 96.9141 208.528 97.2803 208.683 97.3191C209.223 97.4547 209.743 97.5215 210.24 97.5215C211.446 97.5215 212.508 97.1238 213.357 96.3543C213.331 99.463 213.46 102.526 213.832 103.459C214.137 104.224 214.882 106.091 217.234 106.091C217.58 106.091 217.96 106.05 218.378 105.961C220.833 105.433 221.899 104.345 222.311 101.946C222.532 100.664 222.911 97.6021 223.089 95.9599C223.465 96.0775 223.949 96.1314 224.472 96.1312C225.563 96.1312 226.823 95.8987 227.612 95.5312C228.499 95.1181 230.1 94.1043 229.81 93.2235ZM223.963 82.1266C223.955 82.6114 223.888 83.0515 223.818 83.5109C223.742 84.005 223.663 84.5159 223.644 85.136C223.624 85.7395 223.699 86.3669 223.772 86.9737C223.919 88.1994 224.07 89.4611 223.486 90.7061C223.389 90.5339 223.303 90.356 223.228 90.1732C223.155 89.997 222.998 89.7138 222.78 89.3219C221.931 87.7964 219.945 84.2241 220.962 82.7664C221.265 82.3325 222.033 81.8864 223.963 82.1266ZM221.624 73.9133C224.452 73.9759 226.689 75.0368 228.273 77.0664C229.488 78.6231 228.15 85.7065 224.278 91.8174C224.239 91.7678 224.2 91.7183 224.16 91.6689L224.111 91.6075C225.112 89.9503 224.916 88.3106 224.742 86.8569C224.671 86.2603 224.603 85.6968 224.62 85.1675C224.638 84.6065 224.712 84.1253 224.784 83.6601C224.871 83.0868 224.961 82.4935 224.936 81.7942C224.955 81.7208 224.962 81.6341 224.952 81.5312C224.889 80.8606 224.126 78.8535 222.57 77.0369C221.718 76.0432 220.477 74.9313 218.782 74.1813C219.511 74.0298 220.508 73.8885 221.624 73.9133ZM205.799 95.3176C205.017 96.2606 204.477 96.0798 204.299 96.0205C203.142 95.6334 201.799 93.1806 200.615 89.2911C199.591 85.9256 198.992 82.5414 198.945 81.5924C198.795 78.5911 199.521 76.4994 201.101 75.3754C203.673 73.5463 207.902 74.6411 209.602 75.1963C209.577 75.2205 209.552 75.2431 209.528 75.2677C206.739 78.0917 206.805 82.9165 206.812 83.2114C206.812 83.3252 206.822 83.4863 206.835 83.7079C206.883 84.5195 206.972 86.0298 206.733 87.7402C206.512 89.3296 207 90.8853 208.074 92.0084C208.184 92.1235 208.3 92.233 208.421 92.3365C207.943 92.8496 206.904 93.9843 205.799 95.3176ZM208.779 91.3306C207.914 90.4254 207.521 89.1663 207.701 87.8758C207.953 86.069 207.86 84.4954 207.81 83.65C207.803 83.5317 207.797 83.428 207.793 83.3462C208.2 82.984 210.088 81.9698 211.434 82.2791C212.049 82.4201 212.423 82.8396 212.579 83.5612C213.384 87.2969 212.685 88.8539 212.124 90.1052C212.008 90.3629 211.899 90.6066 211.805 90.8586L211.733 91.0535C211.55 91.5461 211.379 92.0042 211.274 92.4391C210.354 92.4365 209.459 92.0425 208.779 91.3305V91.3306ZM208.92 96.3687C208.652 96.3014 208.41 96.1845 208.268 96.0876C208.387 96.0318 208.597 95.9558 208.963 95.8803C210.731 95.5154 211.004 95.2578 211.6 94.4986C211.737 94.3245 211.892 94.1272 212.106 93.8869L212.107 93.8866C212.426 93.5277 212.572 93.5886 212.837 93.6989C213.052 93.788 213.262 94.0581 213.347 94.3553C213.387 94.4957 213.432 94.7621 213.284 94.9694C212.039 96.7183 210.224 96.6958 208.92 96.3687ZM218.173 105.003C216.01 105.467 215.244 104.361 214.74 103.096C214.414 102.279 214.254 98.596 214.367 94.5288C214.369 94.4747 214.361 94.4224 214.346 94.3733C214.333 94.2761 214.313 94.1801 214.286 94.0859C214.117 93.4941 213.705 92.999 213.211 92.7938C213.015 92.7123 212.655 92.5628 212.223 92.6738C212.315 92.2925 212.475 91.862 212.648 91.3958L212.721 91.1997C212.803 90.9786 212.906 90.7496 213.015 90.5071C213.602 89.198 214.407 87.405 213.534 83.3542C213.206 81.837 212.114 81.096 210.458 81.2682C209.465 81.3712 208.556 81.7729 208.103 82.0033C208.006 82.0527 207.917 82.1006 207.833 82.1471C207.96 80.6184 208.438 77.7615 210.225 75.9539C211.35 74.816 212.849 74.254 214.675 74.2843C218.272 74.3433 220.58 76.1948 221.882 77.7377C223.004 79.0671 223.611 80.4064 223.854 81.1287C222.03 80.9427 220.79 81.3036 220.161 82.2049C218.794 84.1653 220.91 87.9703 221.927 89.799C222.113 90.1341 222.274 90.4238 222.325 90.5469C222.656 91.3516 223.084 91.8889 223.397 92.2811C223.493 92.4012 223.586 92.5178 223.657 92.6196C223.105 92.7793 222.113 93.1482 222.203 94.992C222.131 95.9172 221.612 100.249 221.349 101.779C221.001 103.801 220.259 104.554 218.173 105.003V105.003ZM227.201 94.6427C226.636 94.9055 225.691 95.1026 224.793 95.145C223.802 95.1916 223.297 95.0336 223.178 94.9365C223.123 93.7874 223.549 93.6674 224 93.5403C224.071 93.5204 224.141 93.5008 224.207 93.4774C224.249 93.5113 224.294 93.545 224.344 93.5779C225.141 94.1054 226.563 94.1623 228.569 93.7469L228.592 93.7425C228.321 93.9963 227.858 94.3368 227.201 94.6427Z" fill="white"/>
<circle cx="334" cy="90" r="30" fill="white"/>
<path d="M334.5 80C329.833 80 326.917 82.3327 325.75 86.9978C327.5 84.6651 329.542 83.7906 331.875 84.3736C333.206 84.7062 334.158 85.6721 335.211 86.7409C336.927 88.4819 338.913 90.4969 343.25 90.4969C347.917 90.4969 350.834 88.1642 352 83.4987C350.25 85.8314 348.209 86.7063 345.875 86.1233C344.544 85.7907 343.592 84.8248 342.539 83.756C340.823 82.015 338.837 80 334.5 80ZM325.75 90.4969C321.083 90.4969 318.166 92.8297 317 97.4952C318.75 95.1624 320.791 94.2875 323.125 94.8709C324.456 95.204 325.408 96.1695 326.461 97.2378C328.177 98.9788 330.163 100.994 334.5 100.994C339.167 100.994 342.083 98.6615 343.25 93.996C341.5 96.3288 339.458 97.2037 337.125 96.6203C335.794 96.2881 334.842 95.3217 333.789 94.2534C332.073 92.5124 330.087 90.4969 325.75 90.4969Z" fill="#06B6D4"/>
</svg>
