<svg width="45" height="45" viewBox="0 0 45 45" fill="none" xmlns="http://www.w3.org/2000/svg">
<circle cx="22.5" cy="22.5" r="22.5" fill="white"/>
<path d="M29.9525 17.9201C29.9647 18.0964 29.9647 18.2727 29.9647 18.4506C29.9647 23.8725 25.8371 30.1256 18.2897 30.1256V30.1224C16.0601 30.1256 13.8769 29.487 12 28.2829C12.3242 28.3219 12.65 28.3414 12.9766 28.3422C14.8243 28.3438 16.6191 27.7239 18.0727 26.5823C16.3169 26.549 14.7772 25.4041 14.2393 23.7328C14.8544 23.8514 15.4881 23.827 16.0918 23.6621C14.1775 23.2753 12.8003 21.5934 12.8003 19.6402C12.8003 19.6223 12.8003 19.6052 12.8003 19.5882C13.3707 19.9059 14.0093 20.0822 14.6626 20.1017C12.8596 18.8967 12.3039 16.4982 13.3926 14.6229C15.4759 17.1864 18.5497 18.7448 21.8493 18.9097C21.5186 17.4846 21.9703 15.9912 23.0364 14.9893C24.689 13.4358 27.2882 13.5154 28.8418 15.1673C29.7607 14.9861 30.6415 14.6489 31.4475 14.1711C31.1412 15.121 30.5001 15.9278 29.6437 16.4405C30.457 16.3446 31.2517 16.1269 32 15.7945C31.4491 16.6201 30.7552 17.3391 29.9525 17.9201Z" fill="black"/>
</svg>
