<svg width="45" height="45" viewBox="0 0 45 45" fill="none" xmlns="http://www.w3.org/2000/svg">
<circle cx="22.5" cy="22.5" r="22.5" fill="white"/>
<path d="M22.5 21.5588C22.5 21.7442 22.445 21.9255 22.342 22.0796C22.239 22.2338 22.0926 22.354 21.9213 22.4249C21.75 22.4959 21.5615 22.5145 21.3796 22.4783C21.1977 22.4421 21.0307 22.3528 20.8996 22.2217C20.7685 22.0906 20.6792 21.9236 20.643 21.7417C20.6068 21.5598 20.6254 21.3713 20.6964 21.2C20.7673 21.0287 20.8875 20.8823 21.0417 20.7793C21.1958 20.6763 21.3771 20.6213 21.5625 20.6213C21.8111 20.6213 22.0496 20.7201 22.2254 20.8959C22.4012 21.0717 22.5 21.3102 22.5 21.5588ZM17.4375 20.6213C17.2521 20.6213 17.0708 20.6763 16.9167 20.7793C16.7625 20.8823 16.6423 21.0287 16.5714 21.2C16.5004 21.3713 16.4818 21.5598 16.518 21.7417C16.5542 21.9236 16.6435 22.0906 16.7746 22.2217C16.9057 22.3528 17.0727 22.4421 17.2546 22.4783C17.4365 22.5145 17.625 22.4959 17.7963 22.4249C17.9676 22.354 18.114 22.2338 18.217 22.0796C18.32 21.9255 18.375 21.7442 18.375 21.5588C18.375 21.3102 18.2762 21.0717 18.1004 20.8959C17.9246 20.7201 17.6861 20.6213 17.4375 20.6213ZM25.6875 20.6213C25.5021 20.6213 25.3208 20.6763 25.1667 20.7793C25.0125 20.8823 24.8923 21.0287 24.8214 21.2C24.7504 21.3713 24.7318 21.5598 24.768 21.7417C24.8042 21.9236 24.8935 22.0906 25.0246 22.2217C25.1557 22.3528 25.3227 22.4421 25.5046 22.4783C25.6865 22.5145 25.875 22.4959 26.0463 22.4249C26.2176 22.354 26.364 22.2338 26.467 22.0796C26.57 21.9255 26.625 21.7442 26.625 21.5588C26.625 21.3102 26.5262 21.0717 26.3504 20.8959C26.1746 20.7201 25.9361 20.6213 25.6875 20.6213ZM31.125 21.5588C31.1253 23.2165 30.6948 24.8458 29.8755 26.2869C29.0562 27.728 27.8763 28.9313 26.4517 29.7789C25.0271 30.6265 23.4065 31.0891 21.7492 31.1215C20.0918 31.1538 18.4545 30.7548 16.9978 29.9635L13.7288 31.0529C13.4975 31.13 13.2493 31.1412 13.0121 31.0852C12.7748 31.0292 12.5578 30.9082 12.3854 30.7359C12.2131 30.5635 12.0921 30.3465 12.0361 30.1092C11.9801 29.872 11.9913 29.6238 12.0684 29.3926L13.1578 26.1235C12.4634 24.8438 12.0703 23.4225 12.0086 21.9678C11.9469 20.5132 12.2181 19.0636 12.8017 17.7297C13.3853 16.3959 14.2657 15.2128 15.3759 14.2709C16.4861 13.3289 17.7968 12.6529 19.2079 12.2944C20.619 11.9359 22.0934 11.9044 23.5185 12.2022C24.9437 12.5 26.2821 13.1193 27.4315 14.0129C28.581 14.9065 29.5113 16.0508 30.1513 17.3585C30.7914 18.6662 31.1244 20.1028 31.125 21.5588ZM30 21.5588C29.9997 20.2645 29.7016 18.9876 29.1289 17.827C28.5561 16.6663 27.724 15.6529 26.6969 14.8653C25.6698 14.0777 24.4753 13.537 23.2058 13.2849C21.9363 13.0328 20.6258 13.0762 19.3757 13.4116C18.1257 13.7471 16.9695 14.3656 15.9967 15.2194C15.024 16.0732 14.2607 17.1393 13.7659 18.3353C13.2711 19.5313 13.0581 20.8251 13.1433 22.1165C13.2286 23.408 13.6098 24.6626 14.2575 25.7832C14.2975 25.8522 14.3224 25.9289 14.3305 26.0083C14.3385 26.0877 14.3296 26.1678 14.3044 26.2435L13.1362 29.7479C13.1252 29.7809 13.1236 29.8164 13.1316 29.8502C13.1396 29.8841 13.1569 29.9151 13.1815 29.9398C13.2062 29.9644 13.2372 29.9817 13.2711 29.9897C13.3049 29.9977 13.3404 29.9961 13.3734 29.9851L16.875 28.8169C16.9325 28.798 16.9926 28.7882 17.0531 28.7879C17.1519 28.7884 17.2488 28.8146 17.3344 28.8638C18.6171 29.6066 20.0729 29.9984 21.5552 29.9996C23.0375 30.0009 24.494 29.6117 25.778 28.8711C27.062 28.1305 28.1283 27.0647 28.8695 25.7811C29.6107 24.4974 30.0006 23.0411 30 21.5588Z" fill="black"/>
</svg>
